<svg width="6" height="12" viewBox="0 0 6 12" fill="none" xmlns="http://www.w3.org/2000/svg">
<path fill-rule="evenodd" clip-rule="evenodd" d="M5.21849 0.164376C5.54194 0.423133 5.59438 0.895102 5.33562 1.21855L1.71044 5.75003L5.33562 10.2815C5.59438 10.605 5.54194 11.0769 5.21849 11.3357C4.89505 11.5944 4.42308 11.542 4.16432 11.2185L0.164321 6.21855C-0.0548108 5.94464 -0.0548108 5.55542 0.164321 5.28151L4.16432 0.281506C4.42308 -0.0419402 4.89505 -0.0943812 5.21849 0.164376Z" fill="#2B2B2B"/>
<svg width="44" height="44" viewBox="0 0 44 44" fill="none" xmlns="http://www.w3.org/2000/svg">
<rect width="44" height="44" rx="22" fill="white"/>
<path fill-rule="evenodd" clip-rule="evenodd" d="M24.4686 16.4144C24.792 16.6731 24.8444 17.1451 24.5857 17.4685L20.9605 22L24.5857 26.5315C24.8444 26.855 24.792 27.3269 24.4686 27.5857C24.1451 27.8444 23.6731 27.792 23.4144 27.4685L19.4144 22.4685C19.1953 22.1946 19.1953 21.8054 19.4144 21.5315L23.4144 16.5315C23.6731 16.2081 24.1451 16.1556 24.4686 16.4144Z" fill="#2B2B2B"/>
</svg>
