<svg width="104" height="104" viewBox="0 0 104 104" fill="none" xmlns="http://www.w3.org/2000/svg">
<g filter="url(#filter0_d_6_526)">
<rect x="24" y="16" width="56" height="56" rx="28" fill="#34C759"/>
</g>
<path d="M47.5 39.67V38.7C47.5 36.45 49.31 34.24 51.56 34.03C54.24 33.77 56.5 35.88 56.5 38.51V39.89" stroke="white" stroke-width="1.5" stroke-miterlimit="10" stroke-linecap="round" stroke-linejoin="round"/>
<path d="M49 54H55C59.02 54 59.74 52.39 59.95 50.43L60.7 44.43C60.97 41.99 60.27 40 56 40H48C43.73 40 43.03 41.99 43.3 44.43L44.05 50.43C44.26 52.39 44.98 54 49 54Z" stroke="white" stroke-width="1.5" stroke-miterlimit="10" stroke-linecap="round" stroke-linejoin="round"/>
<path d="M55.4955 44H55.5045" stroke="white" stroke-width="2" stroke-linecap="round" stroke-linejoin="round"/>
<path d="M48.4945 44H48.5035" stroke="white" stroke-width="2" stroke-linecap="round" stroke-linejoin="round"/>
<defs>
<filter id="filter0_d_6_526" x="0" y="0" width="104" height="104" filterUnits="userSpaceOnUse" color-interpolation-filters="sRGB">
<feFlood flood-opacity="0" result="BackgroundImageFix"/>
<feColorMatrix in="SourceAlpha" type="matrix" values="0 0 0 0 0 0 0 0 0 0 0 0 0 0 0 0 0 0 127 0" result="hardAlpha"/>
<feOffset dy="8"/>
<feGaussianBlur stdDeviation="12"/>
<feComposite in2="hardAlpha" operator="out"/>
<feColorMatrix type="matrix" values="0 0 0 0 0.356863 0 0 0 0 0.619608 0 0 0 0 0.882353 0 0 0 0.6 0"/>
<feBlend mode="normal" in2="BackgroundImageFix" result="effect1_dropShadow_6_526"/>
<feBlend mode="normal" in="SourceGraphic" in2="effect1_dropShadow_6_526" result="shape"/>
</filter>
</defs>
</svg>
