<svg width="352" height="68" viewBox="0 0 352 68" fill="none" xmlns="http://www.w3.org/2000/svg">
<path d="M176 1C224.557 1 268.49 4.80302 300.261 10.9404C316.154 14.0107 328.953 17.6551 337.754 21.6748C342.157 23.686 345.506 25.7673 347.738 27.875C349.971 29.9827 351 32.0297 351 34C351 35.9703 349.971 38.0173 347.738 40.125C345.506 42.2327 342.157 44.314 337.754 46.3252C328.953 50.3449 316.154 53.9893 300.261 57.0596C268.49 63.197 224.557 67 176 67C127.443 67 83.5095 63.197 51.7393 57.0596C35.8459 53.9893 23.047 50.3449 14.2461 46.3252C9.84265 44.314 6.49436 42.2327 4.26172 40.125C2.02917 38.0173 1 35.9703 1 34C1 32.0297 2.02917 29.9827 4.26172 27.875C6.49436 25.7673 9.84265 23.686 14.2461 21.6748C23.047 17.6551 35.8459 14.0107 51.7393 10.9404C83.5095 4.80302 127.443 1 176 1Z" stroke="url(#paint0_linear_6_1191)" stroke-width="2"/>
<defs>
<linearGradient id="paint0_linear_6_1191" x1="176" y1="27.2" x2="176" y2="68" gradientUnits="userSpaceOnUse">
<stop stop-opacity="0"/>
<stop offset="1" stop-color="#2363F6"/>
</linearGradient>
</defs>
</svg>
