<svg width="22" height="24" viewBox="0 0 22 24" fill="none" xmlns="http://www.w3.org/2000/svg">
<mask id="path-1-inside-1_6_507" fill="white">
<path d="M16.79 22.75H5.21C2.47 22.75 0.25 20.52 0.25 17.78V10.37C0.25 9.00997 1.09 7.29997 2.17 6.45997L7.56 2.25997C9.18 0.999974 11.77 0.939974 13.45 2.11997L19.63 6.44997C20.82 7.27997 21.75 9.05997 21.75 10.51V17.79C21.75 20.52 19.53 22.75 16.79 22.75ZM8.48 3.43997L3.09 7.63997C2.38 8.19997 1.75 9.46997 1.75 10.37V17.78C1.75 19.69 3.3 21.25 5.21 21.25H16.79C18.7 21.25 20.25 19.7 20.25 17.79V10.51C20.25 9.54997 19.56 8.21997 18.77 7.67997L12.59 3.34997C11.45 2.54997 9.57 2.58997 8.48 3.43997Z"/>
</mask>
<path d="M16.79 22.75H5.21C2.47 22.75 0.25 20.52 0.25 17.78V10.37C0.25 9.00997 1.09 7.29997 2.17 6.45997L7.56 2.25997C9.18 0.999974 11.77 0.939974 13.45 2.11997L19.63 6.44997C20.82 7.27997 21.75 9.05997 21.75 10.51V17.79C21.75 20.52 19.53 22.75 16.79 22.75ZM8.48 3.43997L3.09 7.63997C2.38 8.19997 1.75 9.46997 1.75 10.37V17.78C1.75 19.69 3.3 21.25 5.21 21.25H16.79C18.7 21.25 20.25 19.7 20.25 17.79V10.51C20.25 9.54997 19.56 8.21997 18.77 7.67997L12.59 3.34997C11.45 2.54997 9.57 2.58997 8.48 3.43997Z" fill="currentColor"/>
<path d="M11 14.75C11.1339 14.75 11.25 14.8661 11.25 15V18C11.25 18.1339 11.1339 18.25 11 18.25C10.8661 18.25 10.75 18.1339 10.75 18V15C10.75 14.8661 10.8661 14.75 11 14.75Z" fill="currentColor" stroke="currentColor"/>
</svg>
