<svg width="18" height="22" viewBox="0 0 18 22" fill="none" xmlns="http://www.w3.org/2000/svg">
<path d="M15.0894 7.82528L14.2448 7.92114L15.0894 7.82528ZM15.5366 11.7654L16.3812 11.6695V11.6695L15.5366 11.7654ZM2.16313 11.7654L1.31855 11.6695L2.16313 11.7654ZM2.61032 7.82528L3.4549 7.92114L2.61032 7.82528ZM1.29764 13.7222L0.650384 13.1713H0.650384L1.29764 13.7222ZM16.4021 13.7222L15.7548 14.2732V14.2732L16.4021 13.7222ZM11.1198 3.22376H10.2698C10.2698 3.58708 10.5007 3.91024 10.8445 4.02793L11.1198 3.22376ZM6.57991 3.22376L6.85525 4.02793C7.19898 3.91024 7.42991 3.58708 7.42991 3.22376H6.57991ZM12.6458 19.1484C12.8105 18.7088 12.5877 18.2189 12.1482 18.0542C11.7086 17.8894 11.2187 18.1122 11.0539 18.5518L12.6458 19.1484ZM6.64579 18.5518C6.48105 18.1122 5.99114 17.8894 5.55156 18.0542C5.11197 18.2189 4.88917 18.7088 5.05391 19.1484L6.64579 18.5518ZM14.627 16.0001H3.07267V17.7001H14.627V16.0001ZM14.2448 7.92114L14.692 11.8612L16.3812 11.6695L15.934 7.72943L14.2448 7.92114ZM3.00771 11.8612L3.4549 7.92114L1.76574 7.72943L1.31855 11.6695L3.00771 11.8612ZM1.94489 14.2732C2.53443 13.5806 2.90714 12.7473 3.00771 11.8612L1.31855 11.6695C1.25804 12.2027 1.03216 12.7228 0.650384 13.1713L1.94489 14.2732ZM14.692 11.8612C14.7926 12.7473 15.1653 13.5806 15.7548 14.2732L17.0493 13.1713C16.6675 12.7228 16.4417 12.2027 16.3812 11.6695L14.692 11.8612ZM3.07267 16.0001C2.45218 16.0001 2.02279 15.6943 1.82738 15.3499C1.64037 15.0204 1.64204 14.629 1.94489 14.2732L0.650384 13.1713C-0.143789 14.1042 -0.168795 15.2768 0.348867 16.189C0.858139 17.0864 1.86477 17.7001 3.07267 17.7001V16.0001ZM14.627 17.7001C15.8349 17.7001 16.8416 17.0864 17.3508 16.189C17.8685 15.2768 17.8435 14.1042 17.0493 13.1713L15.7548 14.2732C16.0577 14.629 16.0593 15.0204 15.8723 15.3499C15.6769 15.6943 15.2475 16.0001 14.627 16.0001V17.7001ZM11.9698 3.22376V3.12004H10.2698V3.22376H11.9698ZM15.934 7.72943C15.6496 5.22431 13.7928 3.24053 11.3951 2.41959L10.8445 4.02793C12.7316 4.67405 14.0469 6.17716 14.2448 7.92114L15.934 7.72943ZM7.42991 3.22376V3.12004H5.72991V3.22376H7.42991ZM3.4549 7.92114C3.65283 6.17716 4.96816 4.67405 6.85525 4.02793L6.30457 2.41959C3.90687 3.24053 2.05006 5.22431 1.76574 7.72943L3.4549 7.92114ZM8.84985 1.7001C9.63407 1.7001 10.2698 2.33583 10.2698 3.12004H11.9698C11.9698 1.39694 10.573 9.76324e-05 8.84985 9.76324e-05V1.7001ZM8.84985 9.76324e-05C7.12676 9.76324e-05 5.72991 1.39694 5.72991 3.12004H7.42991C7.42991 2.33583 8.06564 1.7001 8.84985 1.7001V9.76324e-05ZM11.0539 18.5518C10.7464 19.3723 9.89438 20.0001 8.84985 20.0001V21.7001C10.5754 21.7001 12.0799 20.6582 12.6458 19.1484L11.0539 18.5518ZM8.84985 20.0001C7.80533 20.0001 6.95331 19.3723 6.64579 18.5518L5.05391 19.1484C5.61976 20.6582 7.12432 21.7001 8.84985 21.7001V20.0001Z" fill="white"/>
</svg>
