<svg width="20" height="20" viewBox="0 0 20 20" fill="none" xmlns="http://www.w3.org/2000/svg">
<path d="M18.4949 13.4706L17.8553 13.0789V13.0789L18.4949 13.4706ZM17.5403 15.0294L18.1799 15.4211V15.4211L17.5403 15.0294ZM1.00707 6.02942L0.367457 5.63775H0.367457L1.00707 6.02942ZM1.96162 4.47057L2.60123 4.86223L1.96162 4.47057ZM4.56949 3.81172L4.92807 3.153L4.92807 3.153L4.56949 3.81172ZM1.70585 8.48826L1.34726 9.14699H1.34726L1.70585 8.48826ZM14.9325 15.6883L14.5739 16.347L14.5739 16.347L14.9325 15.6883ZM17.7961 11.0117L17.4375 11.6704V11.6705L17.7961 11.0117ZM1.96161 15.0294L1.322 15.4211L1.322 15.4211L1.96161 15.0294ZM1.00707 13.4706L1.64668 13.0789L1.64668 13.0789L1.00707 13.4706ZM17.5403 4.47058L18.1799 4.07892L17.5403 4.47058ZM18.4949 6.02943L17.8553 6.42109V6.42109L18.4949 6.02943ZM17.7961 8.48828L18.1547 9.147L17.7961 8.48828ZM14.9325 3.81174L15.291 4.47046V4.47046L14.9325 3.81174ZM1.70584 11.0117L2.06443 11.6705H2.06443L1.70584 11.0117ZM4.56949 15.6883L4.21091 15.0295L4.21091 15.0295L4.56949 15.6883ZM14.831 3.86698L14.4724 3.20825L14.831 3.86698ZM4.67098 3.86697L4.31239 4.52569L4.3124 4.52569L4.67098 3.86697ZM14.831 15.633L15.1896 14.9743L15.1896 14.9743L14.831 15.633ZM4.67098 15.633L5.02955 16.2918L5.02956 16.2918L4.67098 15.633ZM8.79643 1.5H10.7055V0H8.79643V1.5ZM10.7055 18H8.79643V19.5H10.7055V18ZM8.79643 18C8.11408 18 7.63733 17.4889 7.63733 16.95H6.13733C6.13733 18.3993 7.37004 19.5 8.79643 19.5V18ZM11.8646 16.95C11.8646 17.4889 11.3879 18 10.7055 18V19.5C12.1319 19.5 13.3646 18.3993 13.3646 16.95H11.8646ZM10.7055 1.5C11.3879 1.5 11.8646 2.01107 11.8646 2.55H13.3646C13.3646 1.10071 12.1319 0 10.7055 0V1.5ZM8.79643 0C7.37004 0 6.13733 1.10071 6.13733 2.55H7.63733C7.63733 2.01107 8.11408 1.5 8.79643 1.5V0ZM17.8553 13.0789L16.9007 14.6378L18.1799 15.4211L19.1345 13.8622L17.8553 13.0789ZM1.64668 6.42108L2.60123 4.86223L1.32201 4.07891L0.367457 5.63775L1.64668 6.42108ZM2.60123 4.86223C2.90987 4.3582 3.63152 4.15506 4.21091 4.47045L4.92807 3.153C3.68125 2.47428 2.06773 2.86109 1.32201 4.07891L2.60123 4.86223ZM2.06443 7.82954C1.50844 7.52688 1.35527 6.89696 1.64668 6.42108L0.367457 5.63775C-0.395506 6.88373 0.0770382 8.45553 1.34726 9.14699L2.06443 7.82954ZM16.9007 14.6378C16.5921 15.1418 15.8704 15.3449 15.291 15.0295L14.5739 16.347C15.8207 17.0257 17.4342 16.6389 18.1799 15.4211L16.9007 14.6378ZM19.1345 13.8622C19.8975 12.6163 19.4249 11.0445 18.1547 10.353L17.4375 11.6705C17.9935 11.9731 18.1467 12.603 17.8553 13.0789L19.1345 13.8622ZM2.60123 14.6378L1.64668 13.0789L0.367455 13.8622L1.322 15.4211L2.60123 14.6378ZM16.9007 4.86225C17.1643 5.29271 17.403 5.68242 17.5757 5.96451C17.6621 6.10556 17.732 6.21971 17.7803 6.29859C17.8044 6.33803 17.8232 6.36865 17.8359 6.38942C17.8422 6.3998 17.8471 6.40772 17.8503 6.41304C17.852 6.4157 17.8532 6.41771 17.854 6.41906C17.8544 6.41973 17.8548 6.42024 17.855 6.42058C17.8551 6.42075 17.8551 6.42088 17.8552 6.42096C17.8552 6.421 17.8552 6.42104 17.8553 6.42106C17.8553 6.42107 17.8553 6.42108 17.8553 6.42108C17.8553 6.42109 17.8553 6.42109 18.4949 6.02943C19.1345 5.63777 19.1345 5.63777 19.1345 5.63776C19.1345 5.63776 19.1345 5.63775 19.1345 5.63774C19.1345 5.63772 19.1344 5.63768 19.1344 5.63764C19.1344 5.63756 19.1343 5.63743 19.1342 5.63726C19.134 5.63692 19.1337 5.63641 19.1333 5.63574C19.1324 5.63439 19.1312 5.63238 19.1296 5.62972C19.1263 5.6244 19.1215 5.61648 19.1151 5.6061C19.1024 5.58533 19.0836 5.55471 19.0595 5.51527C19.0112 5.43639 18.9413 5.32224 18.8549 5.18119C18.6822 4.8991 18.4435 4.50939 18.1799 4.07892L16.9007 4.86225ZM17.8553 6.42109C18.1467 6.89697 17.9935 7.52689 17.4375 7.82955L18.1547 9.147C19.4249 8.45554 19.8975 6.88374 19.1345 5.63777L17.8553 6.42109ZM15.291 4.47046C15.8704 4.15507 16.5921 4.35822 16.9007 4.86225L18.1799 4.07892C17.4342 2.8611 15.8207 2.47429 14.5739 3.15301L15.291 4.47046ZM1.64668 13.0789C1.35527 12.603 1.50844 11.9731 2.06443 11.6705L1.34726 10.353C0.0770365 11.0445 -0.395507 12.6163 0.367455 13.8622L1.64668 13.0789ZM1.322 15.4211C2.06773 16.6389 3.68124 17.0257 4.92807 16.347L4.21091 15.0295C3.63152 15.3449 2.90986 15.1418 2.60123 14.6378L1.322 15.4211ZM15.1896 4.5257L15.291 4.47046L14.5739 3.15301L14.4724 3.20825L15.1896 4.5257ZM4.21091 4.47045L4.31239 4.52569L5.02956 3.20824L4.92807 3.153L4.21091 4.47045ZM15.291 15.0295L15.1896 14.9743L14.4724 16.2917L14.5739 16.347L15.291 15.0295ZM4.3124 14.9743L4.21091 15.0295L4.92807 16.347L5.02955 16.2918L4.3124 14.9743ZM1.34726 9.14699C1.82501 9.40705 1.82501 10.0929 1.34726 10.353L2.06443 11.6705C3.58596 10.8422 3.58596 8.65779 2.06443 7.82954L1.34726 9.14699ZM5.02956 16.2918C5.52896 16.0199 6.13733 16.3814 6.13733 16.95H7.63733C7.63733 15.2434 5.81133 14.1584 4.31239 14.9743L5.02956 16.2918ZM13.3646 16.95C13.3646 16.3814 13.973 16.0199 14.4724 16.2917L15.1896 14.9743C13.6906 14.1583 11.8646 15.2434 11.8646 16.95H13.3646ZM18.1547 10.353C17.6769 10.0929 17.6769 9.40706 18.1547 9.147L17.4375 7.82955C15.916 8.6578 15.916 10.8422 17.4375 11.6704L18.1547 10.353ZM4.3124 4.52569C5.81133 5.34165 7.63733 4.25663 7.63733 2.55H6.13733C6.13733 3.1186 5.52896 3.4801 5.02956 3.20824L4.3124 4.52569ZM14.4724 3.20825C13.973 3.48011 13.3646 3.11861 13.3646 2.55H11.8646C11.8646 4.25663 13.6906 5.34166 15.1896 4.5257L14.4724 3.20825ZM12.001 9.75C12.001 10.9926 10.9936 12 9.75099 12V13.5C11.8221 13.5 13.501 11.8211 13.501 9.75H12.001ZM9.75099 12C8.50834 12 7.50098 10.9926 7.50098 9.75H6.00098C6.00098 11.8211 7.67992 13.5 9.75099 13.5V12ZM7.50098 9.75C7.50098 8.50736 8.50834 7.5 9.75099 7.5V6C7.67992 6 6.00098 7.67893 6.00098 9.75H7.50098ZM9.75099 7.5C10.9936 7.5 12.001 8.50736 12.001 9.75H13.501C13.501 7.67893 11.8221 6 9.75099 6V7.5Z" fill="white"/>
</svg>
