<svg width="39" height="18" viewBox="0 0 39 18" fill="none" xmlns="http://www.w3.org/2000/svg">
<rect width="38.5714" height="18" rx="9" fill="#707B81"/>
<path d="M32.3536 9.35355C32.5488 9.15829 32.5488 8.84171 32.3536 8.64645L29.1716 5.46447C28.9763 5.2692 28.6597 5.2692 28.4645 5.46447C28.2692 5.65973 28.2692 5.97631 28.4645 6.17157L31.2929 9L28.4645 11.8284C28.2692 12.0237 28.2692 12.3403 28.4645 12.5355C28.6597 12.7308 28.9763 12.7308 29.1716 12.5355L32.3536 9.35355ZM32 8.5H31V9.5H32V8.5Z" fill="white"/>
<path d="M7.64645 9.35355C7.45118 9.15829 7.45118 8.84171 7.64645 8.64645L10.8284 5.46447C11.0237 5.2692 11.3403 5.2692 11.5355 5.46447C11.7308 5.65973 11.7308 5.97631 11.5355 6.17157L8.70711 9L11.5355 11.8284C11.7308 12.0237 11.7308 12.3403 11.5355 12.5355C11.3403 12.7308 11.0237 12.7308 10.8284 12.5355L7.64645 9.35355ZM8 8.5H9V9.5H8V8.5Z" fill="white"/>
</svg>
