<svg width="44" height="44" viewBox="0 0 44 44" fill="none" xmlns="http://www.w3.org/2000/svg">
<rect width="44" height="44" rx="22" fill="white"/>
<path fill-rule="evenodd" clip-rule="evenodd" d="M20 12.6998C19.6553 12.6998 19.3246 12.8368 19.0808 13.0806C18.837 13.3244 18.7 13.655 18.7 13.9998V15.2998H25.3V13.9998C25.3 13.655 25.1631 13.3244 24.9193 13.0806C24.6755 12.8368 24.3448 12.6998 24 12.6998H20ZM26.7 15.2998V13.9998C26.7 13.2837 26.4156 12.597 25.9092 12.0906C25.4029 11.5843 24.7161 11.2998 24 11.2998H20C19.284 11.2998 18.5972 11.5843 18.0909 12.0906C17.5845 12.597 17.3 13.2837 17.3 13.9998V15.2998H13C12.6134 15.2998 12.3 15.6132 12.3 15.9998C12.3 16.3864 12.6134 16.6998 13 16.6998H14.3V29.9998C14.3 30.7159 14.5845 31.4026 15.0909 31.909C15.5972 32.4153 16.284 32.6998 17 32.6998H27C27.7161 32.6998 28.4029 32.4153 28.9092 31.909C29.4156 31.4026 29.7001 30.7159 29.7001 29.9998V16.6998H31C31.3866 16.6998 31.7001 16.3864 31.7001 15.9998C31.7001 15.6132 31.3866 15.2998 31 15.2998H26.7ZM15.7 16.6998V29.9998C15.7 30.3446 15.837 30.6752 16.0808 30.919C16.3246 31.1628 16.6553 31.2998 17 31.2998H27C27.3448 31.2998 27.6755 31.1628 27.9193 30.919C28.1631 30.6752 28.3 30.3446 28.3 29.9998V16.6998H15.7ZM20 20.2998C20.3866 20.2998 20.7 20.6132 20.7 20.9998V26.9998C20.7 27.3864 20.3866 27.6998 20 27.6998C19.6134 27.6998 19.3 27.3864 19.3 26.9998V20.9998C19.3 20.6132 19.6134 20.2998 20 20.2998ZM24 20.2998C24.3866 20.2998 24.7 20.6132 24.7 20.9998V26.9998C24.7 27.3864 24.3866 27.6998 24 27.6998C23.6134 27.6998 23.3 27.3864 23.3 26.9998V20.9998C23.3 20.6132 23.6134 20.2998 24 20.2998Z" fill="#2B2B2B"/>
</svg>
